<svg width="45" height="46" viewBox="0 0 45 46" fill="none" xmlns="http://www.w3.org/2000/svg">
<path d="M45 0.820862H0V45.6743H45V0.820862Z" fill="#F0DB4F"/>
<path d="M24.4889 35.8026C24.4889 40.1677 21.9175 42.1601 18.1707 42.1601C14.7858 42.1601 12.8271 40.4181 11.8225 38.3057L15.2678 36.2332C15.9308 37.4045 16.5335 38.3956 17.9899 38.3956C19.376 38.3956 20.2602 37.855 20.2602 35.7426V21.4154H24.4889V35.8026Z" fill="#323330"/>
<path d="M34.4934 42.1601C30.5659 42.1601 28.0247 40.2978 26.7891 37.855L30.2345 35.8725C31.1385 37.3444 32.3237 38.4356 34.403 38.4356C36.1508 38.4356 37.2756 37.5646 37.2756 36.3533C37.2756 34.9115 36.1306 34.4011 34.1921 33.55L33.1374 33.0995C30.0838 31.8079 28.0648 30.1759 28.0648 26.742C28.0648 23.5781 30.4855 21.1752 34.2521 21.1752C36.9441 21.1752 38.8727 22.1063 40.2589 24.5493L36.9642 26.6518C36.2411 25.3602 35.4576 24.8497 34.2422 24.8497C33.0066 24.8497 32.2231 25.6308 32.2231 26.6518C32.2231 27.9133 33.0066 28.4241 34.8247 29.2148L35.8793 29.6653C39.4753 31.1972 41.4943 32.7692 41.4943 36.2933C41.4945 40.0776 38.5011 42.1601 34.4934 42.1601Z" fill="#323330"/>
</svg>
