<svg width="40" height="41" viewBox="0 0 40 41" fill="none" xmlns="http://www.w3.org/2000/svg">
<path d="M12 12.2215L13.0809 11.4434C12.7423 10.9761 12.1401 10.7797 11.5898 10.957C11.0395 11.1344 10.6667 11.6451 10.6667 12.2215H12ZM20 37.4723C10.4271 37.4723 2.66667 29.7374 2.66667 20.1955H0C0 31.2051 8.95429 40.1303 20 40.1303V37.4723ZM37.3333 20.1955C37.3333 29.7374 29.5731 37.4723 20 37.4723V40.1303C31.0456 40.1303 40 31.2051 40 20.1955H37.3333ZM20 2.9186C29.5731 2.9186 37.3333 10.6537 37.3333 20.1955H40C40 9.18575 31.0456 0.26062 20 0.26062V2.9186ZM20 0.26062C8.95429 0.26062 0 9.18575 0 20.1955H2.66667C2.66667 10.6537 10.4271 2.9186 20 2.9186V0.26062ZM13.3333 32.1564V12.2215H10.6667V32.1564H13.3333ZM10.9191 12.9997L28.2525 36.9213L30.4141 35.3654L13.0809 11.4434L10.9191 12.9997ZM26.6667 10.8925V26.8404H29.3333V10.8925H26.6667Z" fill="#323330"/>
</svg>
