<svg width="45" height="41" viewBox="0 0 45 41" fill="none" xmlns="http://www.w3.org/2000/svg">
<path d="M22.5 24.549C24.7704 24.549 26.611 22.7227 26.611 20.4699C26.611 18.2171 24.7704 16.3908 22.5 16.3908C20.2295 16.3908 18.389 18.2171 18.389 20.4699C18.389 22.7227 20.2295 24.549 22.5 24.549Z" fill="#61DAFB"/>
<path d="M22.5 35.4704C25.7269 38.5845 28.9096 40.4267 31.4735 40.4267C32.3134 40.4267 33.109 40.2513 33.7721 39.8565C36.0707 38.5407 36.9106 35.2511 36.1149 30.558C35.9823 29.7246 35.8055 28.8913 35.5845 28.014C36.4686 27.7509 37.2642 27.4877 38.0599 27.2245C42.5246 25.514 45 23.1455 45 20.5577C45 17.926 42.5246 15.5575 38.0599 13.8908C37.2642 13.5837 36.4686 13.3206 35.5845 13.1013C35.8055 12.224 35.9823 11.3907 36.1149 10.5573C36.8664 5.77647 36.0265 2.44303 33.7279 1.1272C33.0648 0.732451 32.2692 0.557007 31.4293 0.557007C28.9096 0.557007 25.6827 2.39917 22.4558 5.51331C19.2731 2.39917 16.0904 0.557007 13.5265 0.557007C12.6866 0.557007 11.891 0.732451 11.2279 1.1272C8.92927 2.44303 8.08939 5.73261 8.88507 10.4257C9.01768 11.2591 9.1945 12.0925 9.41552 12.9697C8.53144 13.2329 7.73576 13.496 6.94008 13.7592C2.47544 15.4698 0 17.8383 0 20.4261C0 23.0577 2.47544 25.4262 6.94008 27.0929C7.73576 27.4 8.53144 27.6631 9.41552 27.8825C9.1945 28.7597 9.01768 29.593 8.88507 30.4264C8.1336 35.1195 8.97348 38.453 11.2279 39.7249C11.891 40.1197 12.6866 40.2951 13.5265 40.2951C16.0904 40.3829 19.2731 38.5407 22.5 35.4704ZM20.0246 29.5492C20.8202 29.593 21.6601 29.593 22.5 29.593C23.3399 29.593 24.1798 29.593 24.9754 29.5492C24.1798 30.6018 23.3399 31.5668 22.5 32.4879C21.6601 31.5668 20.8202 30.6018 20.0246 29.5492ZM14.5432 25.0315C14.9853 25.7771 15.3831 26.4789 15.8694 27.1807C14.499 27.0052 13.2171 26.7859 11.9794 26.5228C12.3772 25.3385 12.8193 24.1104 13.3497 22.8823C13.7033 23.5841 14.1012 24.3297 14.5432 25.0315ZM11.9794 14.461C13.2171 14.1978 14.499 13.9785 15.8694 13.803C15.4273 14.5048 14.9853 15.2066 14.5432 15.9522C14.1012 16.6979 13.7033 17.3997 13.3497 18.1453C12.775 16.8733 12.333 15.6452 11.9794 14.461ZM14.4106 20.4699C14.9853 19.2857 15.6041 18.1014 16.3114 16.9172C16.9745 15.7768 17.7259 14.6364 18.4774 13.496C19.8035 13.4083 21.1297 13.3644 22.5 13.3644C23.9145 13.3644 25.2407 13.4083 26.5226 13.496C27.3183 14.6364 28.0255 15.7768 28.6886 16.9172C29.3959 18.1014 30.0147 19.2857 30.5894 20.4699C30.0147 21.6542 29.3959 22.8384 28.6886 24.0227C28.0255 25.1631 27.2741 26.3035 26.5226 27.4438C25.1965 27.5316 23.8703 27.5754 22.5 27.5754C21.0855 27.5754 19.7593 27.5316 18.4774 27.4438C17.6817 26.3035 16.9745 25.1631 16.3114 24.0227C15.6041 22.8384 14.9853 21.6542 14.4106 20.4699ZM31.6945 18.1014L30.501 15.9084C30.0589 15.1627 29.6611 14.461 29.1749 13.7592C30.5452 13.9346 31.8271 14.1539 33.0648 14.4171C32.667 15.6452 32.225 16.8733 31.6945 18.1014ZM31.6945 22.8384C32.225 24.0665 32.667 25.2946 33.0648 26.4789C31.8271 26.7421 30.5452 26.9614 29.1749 27.1368C29.6169 26.435 30.0589 25.7333 30.501 24.9876C30.8988 24.3297 31.2967 23.5841 31.6945 22.8384ZM32.7112 38.0582C32.3576 38.2775 31.9155 38.3652 31.4293 38.3652C29.2633 38.3652 26.5668 36.6108 23.9145 33.9791C25.1965 32.6194 26.4342 31.0843 27.6719 29.3737C29.7495 29.1983 31.7387 28.8913 33.5953 28.4526C33.8163 29.2421 33.9489 30.0316 34.0815 30.8211C34.7004 34.5493 34.2141 37.2249 32.7112 38.0582ZM35.0098 14.9434C39.9607 16.347 42.9224 18.4962 42.9224 20.4699C42.9224 22.1805 40.889 23.8911 37.3084 25.2508C36.6012 25.514 35.8055 25.7771 35.0098 25.9964C34.4352 24.1981 33.7279 22.356 32.8438 20.4699C33.7279 18.5839 34.4794 16.7417 35.0098 14.9434ZM31.4735 2.57462C31.9597 2.57462 32.3576 2.66234 32.7554 2.88164C34.2141 3.715 34.7446 6.34667 34.1257 10.1187C33.9931 10.8644 33.8163 11.6539 33.6395 12.4872C31.7829 12.0925 29.7937 11.7854 27.7161 11.5661C26.5226 9.85555 25.2407 8.32042 23.9587 6.96072C26.611 4.37292 29.3075 2.57462 31.4735 2.57462ZM24.9754 11.3907C24.1798 11.3468 23.3399 11.3468 22.5 11.3468C21.6601 11.3468 20.8202 11.3468 20.0246 11.3907C20.8202 10.338 21.6601 9.37308 22.5 8.452C23.3399 9.37308 24.1798 10.3819 24.9754 11.3907ZM12.2888 2.88164C12.6424 2.66234 13.0845 2.57462 13.5707 2.57462C15.7367 2.57462 18.4332 4.32906 21.0855 6.96072C19.8035 8.32042 18.5658 9.85555 17.3281 11.5661C15.2505 11.7416 13.2613 12.0486 11.4047 12.4872C11.1837 11.6977 11.0511 10.9082 10.9185 10.1187C10.2996 6.39053 10.7859 3.75886 12.2888 2.88164ZM9.99018 25.9964C5.03929 24.5929 2.0776 22.4437 2.0776 20.4699C2.0776 18.7593 4.111 17.0488 7.69155 15.6891C8.39882 15.4259 9.1945 15.1627 9.99018 14.9434C10.5648 16.7417 11.2721 18.5839 12.1562 20.4699C11.2721 22.356 10.5206 24.242 9.99018 25.9964ZM10.9185 30.8211C11.0511 30.0755 11.2279 29.286 11.4047 28.4526C13.2613 28.8474 15.2505 29.1544 17.3281 29.3737C18.5216 31.0843 19.8035 32.6194 21.0855 33.9791C18.4332 36.5669 15.7367 38.3652 13.5707 38.3652C13.0845 38.3652 12.6866 38.2775 12.2888 38.0582C10.7859 37.2249 10.2996 34.5493 10.9185 30.8211Z" fill="#61DAFB"/>
</svg>
