<svg width="45" height="45" viewBox="0 0 45 45" fill="none" xmlns="http://www.w3.org/2000/svg">
<path d="M17.6897 19.6125C18.0244 19.5422 18.3684 19.4925 18.7125 19.4625L21.3872 19.2084L17.7544 15.2259C16.6612 14.0231 16.0575 12.4659 16.0575 10.8394H13.0528C13.0528 13.215 13.9359 15.4959 15.5381 17.2519L17.6897 19.6125Z" fill="#323330"/>
<path d="M27.0721 25.4465C26.8031 25.4962 26.5284 25.5309 26.2537 25.5609L23.3587 25.8356L26.9821 29.8078C28.0753 31.0106 28.679 32.5678 28.679 34.1943H31.6884C31.6884 31.8187 30.8053 29.5434 29.2031 27.7818L27.0721 25.4465Z" fill="#323330"/>
<path d="M32.0475 16.6191C31.5534 14.1637 29.6268 12.3769 27.1415 12.0628L26.6821 12.0028C25.1296 11.8078 23.9568 10.4803 23.9568 8.91843V7.31625C25.334 6.7425 26.3025 5.385 26.3025 3.8025C26.3034 1.70156 24.6018 0 22.5009 0C20.4 0 18.6984 1.70156 18.6984 3.8025C18.6984 5.34937 19.6265 6.6825 20.954 7.27593V8.91749C20.954 11.9962 23.2546 14.6072 26.309 14.9859L26.7684 15.0459C28.2009 15.2259 28.9143 16.2834 29.1037 17.2116C29.2931 18.1397 29.0484 19.3922 27.7959 20.1159C27.1818 20.4703 26.5181 20.685 25.815 20.7497L18.9131 21.3984C17.775 21.5081 16.6968 21.8522 15.7087 22.4212C13.5375 23.6784 12.4547 26.0747 12.9543 28.53C13.4484 30.9853 15.375 32.7722 17.8603 33.0862L18.3196 33.1462C19.8721 33.3412 21.045 34.6687 21.045 36.2306V37.6875C19.6725 38.2612 18.7096 39.6187 18.7096 41.1956C18.7096 43.2965 20.4112 44.9981 22.5121 44.9981C24.6131 44.9981 26.3146 43.2965 26.3146 41.1956C26.3146 39.6431 25.3818 38.3062 24.0487 37.7175V36.2306C24.0487 33.1519 21.7481 30.5409 18.6937 30.1622L18.2343 30.1022C16.8018 29.9222 16.0884 28.8647 15.899 27.9365C15.7097 27.0084 15.9543 25.7559 17.2068 25.0322C17.8209 24.6778 18.4846 24.4631 19.1878 24.3984L26.0896 23.7497C27.2278 23.64 28.3059 23.2959 29.294 22.7269C31.4643 21.4697 32.5415 19.0744 32.0475 16.6191Z" fill="#323330"/>
</svg>
