<svg width="45" height="45" viewBox="0 0 45 45" fill="none" xmlns="http://www.w3.org/2000/svg">
<path d="M37.0906 24.767C35.676 24.7732 34.4508 25.1143 33.4278 25.6196C33.0551 24.8679 32.6698 24.2112 32.6066 23.7186C32.5311 23.1438 32.4488 22.8029 32.5373 22.1209C32.6258 21.4387 33.0235 20.4724 33.0173 20.403C33.011 20.3336 32.9288 19.9862 32.1142 19.9798C31.2995 19.9736 30.5986 20.1377 30.5164 20.3524C30.4342 20.5671 30.2765 21.0535 30.1817 21.5587C30.0365 22.2976 28.5522 24.9375 27.7123 26.3142C27.4345 25.7775 27.2008 25.3037 27.1502 24.9248C27.0744 24.35 26.9924 24.0091 27.0808 23.3271C27.1692 22.6449 27.567 21.6786 27.5607 21.6092C27.5543 21.5398 27.4722 21.1924 26.6577 21.1861C25.8429 21.1798 25.1421 21.3439 25.0598 21.5587C24.9777 21.7733 24.8893 22.2786 24.7251 22.7651C24.561 23.2511 22.5842 27.6466 22.0664 28.7898C21.801 29.3707 21.5738 29.8381 21.4095 30.154C21.3844 30.2044 21.3654 30.2361 21.3528 30.2614C21.3717 30.2298 21.3844 30.1981 21.3844 30.2109C21.3122 30.3527 21.2385 30.4937 21.1633 30.6339V30.6402C21.0559 30.8422 20.9359 31.0253 20.8791 31.0253C20.8412 31.0253 20.7592 30.495 20.8981 29.7687C21.1948 28.2403 21.8958 25.866 21.8895 25.7837C21.8832 25.7395 22.0221 25.329 21.4284 25.1079C20.8538 24.8995 20.6453 25.247 20.5949 25.247C20.5444 25.247 20.5065 25.3733 20.5065 25.3733C20.5065 25.3733 21.1444 22.6956 19.2813 22.6956C18.1193 22.6956 16.5026 23.9714 15.7069 25.1271C15.208 25.3987 14.128 25.9859 12.9913 26.6111C12.5555 26.8511 12.1071 27.0973 11.684 27.3311C11.6525 27.2994 11.6271 27.2678 11.5956 27.2363C9.3347 24.8239 5.16024 23.1188 5.33717 19.8789C5.40027 18.6979 5.81081 15.5972 13.364 11.8332C19.553 8.75129 24.5042 9.59759 25.3569 11.4795C26.5819 14.1636 22.7106 19.159 16.2817 19.8789C13.8313 20.1504 12.5431 19.2032 12.2209 18.8496C11.8862 18.477 11.8356 18.4579 11.7093 18.5274C11.5008 18.6411 11.6336 18.9695 11.7093 19.1653C11.8988 19.6641 12.6882 20.5483 14.0334 20.9904C15.2142 21.3756 18.0878 21.5904 21.5612 20.2452C25.464 18.7421 28.5018 14.555 27.6113 11.0501C26.702 7.4883 20.7971 6.31988 15.2081 8.30287C11.8799 9.48386 8.28018 11.3406 5.69084 13.7593C2.61528 16.6392 2.12274 19.1463 2.32471 20.1947C3.04471 23.9144 8.17269 26.3395 10.2252 28.133C10.1241 28.1899 10.0294 28.2404 9.94105 28.291C8.91168 28.8024 5.00248 30.8486 4.02355 33.0087C2.9185 35.459 4.20663 37.2145 5.05293 37.4546C7.69272 38.1871 10.3957 36.8672 11.8483 34.701C13.3007 32.5349 13.1239 29.7056 12.4545 28.4173C12.4481 28.3984 12.4356 28.3859 12.4293 28.3667C12.6945 28.209 12.966 28.051 13.2377 27.8932C13.7617 27.5837 14.2734 27.2994 14.7217 27.0533C14.469 27.7354 14.2859 28.556 14.1912 29.7435C14.0775 31.1328 14.6523 32.9327 15.3975 33.6401C15.7257 33.9495 16.1236 33.9559 16.37 33.9559C17.2415 33.9559 17.633 33.2359 18.0687 32.377C18.6056 31.3285 19.0792 30.1096 19.0792 30.1096C19.0792 30.1096 18.4856 33.4065 20.1086 33.4065C20.7022 33.4065 21.296 32.6422 21.5611 32.2507V32.2569C21.5611 32.2569 21.5738 32.2318 21.6054 32.1813C21.6685 32.0865 21.7 32.0296 21.7 32.0296V32.0106C21.94 31.6001 22.4642 30.6591 23.2535 29.1056C24.2767 27.0972 25.2555 24.59 25.2555 24.59C25.2555 24.59 25.3439 25.2027 25.6472 26.2195C25.8239 26.8194 26.1965 27.4762 26.4933 28.1141C26.2535 28.4425 26.1081 28.632 26.1081 28.632C26.1081 28.632 26.1081 28.6382 26.1142 28.6445C25.9126 28.913 25.7042 29.1763 25.4892 29.4341C24.6807 30.394 23.7208 31.493 23.5946 31.8087C23.4429 32.1813 23.4809 32.459 23.7714 32.6739C23.9861 32.8382 24.365 32.8633 24.7628 32.8318C25.4892 32.7811 26.0007 32.6045 26.247 32.4905C26.6384 32.3519 27.0933 32.1306 27.5227 31.8213C28.3121 31.2404 28.7922 30.4067 28.7478 29.3078C28.7226 28.7016 28.5267 28.0952 28.2867 27.527C28.3562 27.4258 28.4321 27.3184 28.5015 27.2112C29.7521 25.3858 30.7183 23.3841 30.7183 23.3841C30.7183 23.3841 30.8067 23.9965 31.1098 25.0133C31.2614 25.525 31.5582 26.087 31.8297 26.6363C30.655 27.59 29.9289 28.6953 29.6762 29.4214C29.2088 30.7667 29.5751 31.3728 30.2635 31.512C30.5729 31.5751 31.015 31.4297 31.3435 31.2908C31.7539 31.1518 32.2466 30.9307 32.7075 30.5897C33.497 30.0089 34.2612 29.194 34.2107 28.0889C34.1917 27.5899 34.0528 27.0911 33.8696 26.6111C34.861 26.1944 36.1496 25.9669 37.7915 26.1564C41.3091 26.5669 41.9974 28.7646 41.8648 29.6802C41.7323 30.6024 40.9934 31.1077 40.7471 31.2592C40.5006 31.4108 40.4249 31.4677 40.444 31.5813C40.4755 31.7455 40.5891 31.7393 40.7975 31.7012C41.0882 31.6507 42.6416 30.956 42.711 29.2571C42.8122 27.1099 40.7472 24.7481 37.0906 24.767ZM9.97893 33.9052C8.81702 35.1746 7.18761 35.6546 6.48669 35.2504C5.73513 34.8148 6.03194 32.9454 7.46553 31.5938C8.33705 30.7729 9.46117 30.0151 10.2064 29.5478C10.3769 29.4468 10.6233 29.2952 10.9264 29.112C10.9769 29.0807 11.0022 29.0679 11.0022 29.0679C11.0589 29.0299 11.1221 28.9984 11.1853 28.9604C11.7093 30.8803 11.2041 32.5727 9.97893 33.9052ZM18.4668 28.133C18.0626 29.1244 17.21 31.6507 16.6923 31.518C16.2502 31.4043 15.9785 29.4782 16.6039 27.5837C16.9196 26.63 17.5889 25.4933 17.9869 25.0513C18.6246 24.3375 19.3257 24.1102 19.4899 24.3944C19.7109 24.767 18.7193 27.5142 18.4668 28.133ZM25.4767 31.4803C25.3063 31.5687 25.1483 31.6254 25.0726 31.5812C25.0158 31.5497 25.1421 31.4296 25.1421 31.4296C25.1421 31.4296 26.0198 30.4887 26.3672 30.0591C26.5994 29.7686 26.8288 29.4761 27.0556 29.1814C27.0556 29.2128 27.0617 29.2446 27.0617 29.2823C27.0556 30.4129 25.9694 31.1772 25.4767 31.4803ZM30.8828 30.2487C30.7565 30.1603 30.7753 29.8635 31.1985 28.9413C31.3627 28.5813 31.7417 27.9752 32.3983 27.3941C32.4742 27.6341 32.5183 27.8613 32.5183 28.0761C32.5119 29.4971 31.4953 30.0276 30.8828 30.2487Z" fill="#323330"/>
</svg>
