<svg width="45" height="46" viewBox="0 0 45 46" fill="none" xmlns="http://www.w3.org/2000/svg">
<rect y="1" width="45" height="45" fill="#323330"/>
<path fill-rule="evenodd" clip-rule="evenodd" d="M0 0.820862H45V45.6743H0V0.820862ZM30 18.7622C28.4087 18.7622 26.8826 19.3923 25.7574 20.5139C24.6321 21.6354 24 23.1566 24 24.7427C24 26.3288 24.6321 27.85 25.7574 28.9715C26.8826 30.0931 28.4087 30.7231 30 30.7231H33C33.7957 30.7231 34.5587 31.0382 35.1213 31.599C35.6839 32.1597 36 32.9203 36 33.7134C36 34.5064 35.6839 35.267 35.1213 35.8278C34.5587 36.3886 33.7957 36.7036 33 36.7036H30C29.2044 36.7036 28.4413 36.3886 27.8787 35.8278C27.3161 35.267 27 34.5064 27 33.7134H24C24 35.2995 24.6321 36.8206 25.7574 37.9422C26.8826 39.0637 28.4087 39.6938 30 39.6938H33C34.5913 39.6938 36.1174 39.0637 37.2426 37.9422C38.3679 36.8206 39 35.2995 39 33.7134C39 32.1273 38.3679 30.6061 37.2426 29.4845C36.1174 28.363 34.5913 27.7329 33 27.7329H30C29.2044 27.7329 28.4413 27.4179 27.8787 26.8571C27.3161 26.2963 27 25.5357 27 24.7427C27 23.9496 27.3161 23.1891 27.8787 22.6283C28.4413 22.0675 29.2044 21.7525 30 21.7525H33.501C34.881 21.7525 36 22.8678 36 24.2433V24.7427H39V24.2433C39 21.2172 36.54 18.7622 33.501 18.7622H30ZM9 18.7622H24V21.7525H18V39.6938H15V21.7525H9V18.7622Z" fill="#1656CC"/>
</svg>
