<svg width="45" height="45" viewBox="0 0 45 45" fill="none" xmlns="http://www.w3.org/2000/svg">
<path d="M24.3901 12.9397H20.2147V16.736H24.3901V12.9397Z" fill="#099CEC"/>
<path d="M24.3901 17.5004H20.2147V21.2524H24.3901V17.5004Z" fill="#099CEC"/>
<path d="M19.4568 12.9397H15.2815V16.736H19.4568V12.9397Z" fill="#099CEC"/>
<path d="M29.3297 17.494H25.1543V21.2462H29.3297V17.494Z" fill="#099CEC"/>
<path d="M24.3901 8.34741H20.2147V12.1816H24.3901V8.34741Z" fill="#099CEC"/>
<path d="M14.5234 12.9397H10.3481V16.736H14.5234V12.9397Z" fill="#099CEC"/>
<path d="M19.4568 17.494H15.2815V21.2462H19.4568V17.494Z" fill="#099CEC"/>
<path d="M41.8747 19.2564C40.9651 18.6436 38.868 18.4225 37.2572 18.7259C37.0488 17.2098 36.2023 15.8896 34.6611 14.7021L33.7767 14.1145L33.1892 14.9989C32.0268 16.7549 31.7111 19.6479 32.9556 21.5557C32.4061 21.8525 31.3256 22.2569 29.8982 22.2315H2.43961C1.89011 25.4404 2.80602 29.6094 5.21906 32.4708C7.56249 35.2438 11.0746 36.6526 15.6668 36.6526C25.6093 36.6526 32.9681 32.0731 36.4108 23.7537C37.7627 23.779 40.6809 23.7601 42.178 20.8988C42.2728 20.7408 42.5949 20.0649 42.7148 19.8185L41.8747 19.2564Z" fill="#099CEC"/>
<path d="M9.59647 17.494H9.59006H5.42114V21.2462H9.59647V17.494Z" fill="#099CEC"/>
<path d="M14.5234 17.494H10.3481V21.2462H14.5234V17.494Z" fill="#099CEC"/>
</svg>
