<svg width="45" height="45" viewBox="0 0 45 45" fill="none" xmlns="http://www.w3.org/2000/svg">
<path d="M38.4402 0H6.55977C2.93691 0 0 2.93691 0 6.55977V38.4402C0 42.0631 2.93691 45 6.55977 45H38.4402C42.0631 45 45 42.0631 45 38.4402V6.55977C45 2.93691 42.0631 0 38.4402 0Z" fill="#525967"/>
<path d="M38.4402 1.96793C39.6581 1.96793 40.826 2.45171 41.6871 3.31285C42.5483 4.17399 43.0321 5.34194 43.0321 6.55977V38.4402C43.0321 39.6581 42.5483 40.826 41.6871 41.6871C40.826 42.5483 39.6581 43.0321 38.4402 43.0321H6.55977C5.34194 43.0321 4.17399 42.5483 3.31285 41.6871C2.45171 40.826 1.96793 39.6581 1.96793 38.4402V6.55977C1.96793 5.34194 2.45171 4.17399 3.31285 3.31285C4.17399 2.45171 5.34194 1.96793 6.55977 1.96793H38.4402ZM38.4402 0H6.55977C4.82001 0 3.15151 0.691116 1.92131 1.92131C0.691116 3.15151 0 4.82001 0 6.55977V38.4402C0 40.18 0.691116 41.8485 1.92131 43.0787C3.15151 44.3089 4.82001 45 6.55977 45H38.4402C40.18 45 41.8485 44.3089 43.0787 43.0787C44.3089 41.8485 45 40.18 45 38.4402V6.55977C45 4.82001 44.3089 3.15151 43.0787 1.92131C41.8485 0.691116 40.18 0 38.4402 0Z" fill="#454B57"/>
<path d="M16.8912 39.3258C17.6277 39.3258 18.357 39.1808 19.0375 38.8989C19.718 38.6171 20.3363 38.2039 20.8571 37.6831C21.3779 37.1623 21.791 36.544 22.0729 35.8636C22.3547 35.1831 22.4998 34.4538 22.4998 33.7172V28.1086H16.8912C15.4037 28.1086 13.9771 28.6995 12.9253 29.7514C11.8735 30.8032 11.2826 32.2297 11.2826 33.7172C11.2826 35.2047 11.8735 36.6313 12.9253 37.6831C13.9771 38.7349 15.4037 39.3258 16.8912 39.3258Z" fill="#0ACF83"/>
<path d="M11.2826 22.5C11.2826 21.0125 11.8735 19.586 12.9253 18.5341C13.9771 17.4823 15.4037 16.8914 16.8912 16.8914H22.4998V28.1086H16.8912C15.4037 28.1086 13.9771 27.5177 12.9253 26.4659C11.8735 25.4141 11.2826 23.9875 11.2826 22.5Z" fill="#A259FF"/>
<path d="M11.2826 11.2827C11.2826 9.79524 11.8735 8.36867 12.9253 7.31685C13.9771 6.26504 15.4037 5.67413 16.8912 5.67413H22.4998V16.8913H16.8912C15.4037 16.8913 13.9771 16.3004 12.9253 15.2486C11.8735 14.1968 11.2826 12.7702 11.2826 11.2827Z" fill="#F24E1E"/>
<path d="M22.5 5.70691H28.1086C29.5961 5.70691 31.0227 6.29781 32.0745 7.34963C33.1263 8.40145 33.7172 9.82802 33.7172 11.3155C33.7172 12.803 33.1263 14.2296 32.0745 15.2814C31.0227 16.3332 29.5961 16.9241 28.1086 16.9241H22.5V5.70691Z" fill="#FF7262"/>
<path d="M33.7172 22.5C33.7172 23.6093 33.3883 24.6937 32.772 25.616C32.1557 26.5383 31.2798 27.2572 30.2549 27.6817C29.2301 28.1062 28.1024 28.2173 27.0144 28.0009C25.9265 27.7844 24.9271 27.2503 24.1427 26.4659C23.3583 25.6815 22.8242 24.6822 22.6078 23.5942C22.3914 22.5062 22.5024 21.3785 22.9269 20.3537C23.3514 19.3289 24.0703 18.4529 24.9926 17.8366C25.915 17.2204 26.9993 16.8914 28.1086 16.8914C29.5961 16.8914 31.0227 17.4823 32.0745 18.5341C33.1263 19.586 33.7172 21.0125 33.7172 22.5Z" fill="#1ABCFE"/>
</svg>
