<svg width="45" height="45" viewBox="0 0 45 45" fill="none" xmlns="http://www.w3.org/2000/svg">
<path d="M44.1779 20.4976L44.176 20.4967L24.4904 0.798168C23.4283 -0.266361 21.5698 -0.265446 20.5115 0.797253L0.822144 20.4976C0.292969 21.0298 0 21.7362 0 22.4864C0 23.2376 0.292969 23.9448 0.823975 24.4761L20.5096 44.1746C21.0406 44.7069 21.7474 45.0001 22.5 45.0001C23.2526 45.0001 23.9594 44.7069 24.4885 44.1755L44.176 24.4761C44.707 23.9448 45 23.2376 45 22.4864C45 21.7362 44.707 21.0298 44.1779 20.4976Z" fill="#EF473B"/>
<path opacity="0.1" d="M44.4018 23.7935L24.5092 43.6981C23.9745 44.235 23.2603 44.5313 22.4999 44.5313C21.7396 44.5313 21.0254 44.235 20.4889 43.6972L0.598129 23.7935C0.3657 23.5609 0.188087 23.2903 0.050415 23.0018C0.152725 23.5568 0.416626 24.0685 0.823921 24.4761L20.5096 44.1745C21.0406 44.7068 21.7474 45 22.4999 45C23.2525 45 23.9593 44.7068 24.4885 44.1755L44.176 24.4761C44.5833 24.0685 44.8473 23.5568 44.9496 23.0018C44.8119 23.2903 44.6342 23.5609 44.4018 23.7935Z" fill="#010101"/>
<path d="M31.8749 18.7501C31.172 18.7501 30.5212 18.9564 29.9583 19.2943L25.7057 15.0417C26.0435 14.4789 26.2499 13.8281 26.2499 13.1251C26.2499 11.0569 24.5672 9.37505 22.4999 9.37505C21.8064 9.37505 21.1644 9.57716 20.6065 9.90675L16.0058 5.30542L14.6804 6.63145L19.2811 11.2327C18.9519 11.7902 18.7499 12.4319 18.7499 13.1251C18.7499 14.8675 19.95 16.3226 21.5624 16.7418V28.2583C19.95 28.6775 18.7499 30.1326 18.7499 31.8751C18.7499 33.9432 20.4327 35.6251 22.4999 35.6251C24.5672 35.6251 26.2499 33.9432 26.2499 31.8751C26.2499 30.1326 25.0499 28.6775 23.4374 28.2583V16.7418C23.7689 16.6557 24.0797 16.5246 24.3691 16.3565L28.6435 20.6309C28.3225 21.1834 28.1249 21.8163 28.1249 22.5001C28.1249 24.5682 29.8077 26.2501 31.8749 26.2501C33.9422 26.2501 35.6249 24.5682 35.6249 22.5001C35.6249 20.4319 33.9422 18.7501 31.8749 18.7501Z" fill="white"/>
<path opacity="0.2" d="M0.822144 20.9663L20.5115 1.266C21.5698 0.203304 23.4283 0.202389 24.4904 1.26692L44.176 20.9654L44.1779 20.9663C44.651 21.4422 44.9222 22.0599 44.9771 22.7209C44.9836 22.6424 45 22.5661 45 22.4864C45 21.7362 44.707 21.0298 44.1779 20.4976L44.176 20.4967L24.4904 0.798168C23.4283 -0.266361 21.5698 -0.265446 20.5115 0.797253L0.822144 20.4976C0.292969 21.0298 0 21.7362 0 22.4864C0 22.566 0.016365 22.6423 0.0228881 22.7207C0.0779342 22.0597 0.349159 21.4421 0.822144 20.9663Z" fill="white"/>
<path d="M34.7791 20.157C35.2998 20.8009 35.625 21.6091 35.625 22.5C35.625 24.5682 33.9423 26.25 31.875 26.25C29.8078 26.25 28.125 24.5682 28.125 22.5C28.125 21.8162 28.3226 21.1834 28.6436 20.6309L24.3692 16.3565C24.0798 16.5246 23.769 16.6556 23.4375 16.7418V28.2582C25.05 28.6774 26.25 30.1325 26.25 31.875C26.25 33.9432 24.5673 35.625 22.5 35.625C21.541 35.625 20.6741 35.2525 20.0103 34.658L27.0074 41.6551L41.6379 27.0157L34.7791 20.157ZM25.7057 15.0417L29.9584 19.2943C30.5213 18.9564 31.1721 18.75 31.875 18.75C32.7658 18.75 33.5742 19.0754 34.2184 19.5963L25.4478 10.8256L25.4432 10.8293C25.9409 11.4657 26.25 12.2562 26.25 13.125C26.25 13.828 26.0436 14.4789 25.7057 15.0417Z" fill="url(#paint0_linear_71_134)"/>
<path d="M44.1779 20.4976L44.176 20.4967L24.4904 0.798168C23.4283 -0.266361 21.5698 -0.265446 20.5115 0.797253L0.822144 20.4976C0.292969 21.0298 0 21.7362 0 22.4864C0 23.2376 0.292969 23.9448 0.823975 24.4761L20.5096 44.1746C21.0406 44.7069 21.7474 45.0001 22.5 45.0001C23.2526 45.0001 23.9594 44.7069 24.4885 44.1755L44.176 24.4761C44.707 23.9448 45 23.2376 45 22.4864C45 21.7362 44.707 21.0298 44.1779 20.4976Z" fill="url(#paint1_linear_71_134)"/>
<defs>
<linearGradient id="paint0_linear_71_134" x1="18.1299" y1="18.1427" x2="34.3249" y2="34.3376" gradientUnits="userSpaceOnUse">
<stop stop-color="#010101" stop-opacity="0.1"/>
<stop offset="1" stop-color="#010101" stop-opacity="0"/>
</linearGradient>
<linearGradient id="paint1_linear_71_134" x1="3.77591" y1="13.7624" x2="41.2188" y2="31.2223" gradientUnits="userSpaceOnUse">
<stop stop-color="white" stop-opacity="0.2"/>
<stop offset="1" stop-color="white" stop-opacity="0"/>
</linearGradient>
</defs>
</svg>
