<svg width="45" height="45" viewBox="0 0 45 45" fill="none" xmlns="http://www.w3.org/2000/svg">
<g clip-path="url(#clip0_71_143)">
<path d="M41.7206 22.1625C41.7184 20.8718 41.2889 19.6182 40.4993 18.5973C39.7097 17.5763 38.6043 16.8455 37.3557 16.5188L42.9581 0H15.195L20.8125 16.5713C19.5998 16.9247 18.5343 17.6618 17.7758 18.6718C17.0172 19.6819 16.6064 20.9106 16.605 22.1737C16.6073 23.1051 16.8318 24.0224 17.26 24.8495C17.6882 25.6765 18.3077 26.3894 19.0669 26.9288C18.4688 27.772 17.7879 28.5534 17.0344 29.2612C15.6484 30.5813 14.0264 31.6289 12.2532 32.3494C10.6894 31.2938 10.0125 29.4319 10.6238 27.7631C11.954 27.3499 13.0924 26.4742 13.833 25.2944C14.5735 24.1147 14.8672 22.7088 14.6611 21.3312C14.4549 19.9536 13.7624 18.6953 12.7089 17.784C11.6554 16.8728 10.3105 16.3687 8.91753 16.3631C7.3701 16.3651 5.88662 16.9807 4.79242 18.0749C3.69823 19.1691 3.08264 20.6526 3.08065 22.2C3.08065 23.79 3.73128 25.2488 4.77378 26.2913C4.68378 26.4731 4.5919 26.6569 4.50003 26.8519C3.62815 28.65 2.63815 30.6825 2.2594 32.9625C1.50378 37.5225 2.74128 41.1825 5.72628 43.2544C7.34183 44.3938 9.27121 45.0037 11.2482 45C14.6738 45 18.1519 43.2806 21.5138 41.6119C23.9119 40.4269 26.3869 39.1894 28.8225 38.5894C29.7225 38.3681 30.66 38.2388 31.65 38.0944C33.6563 37.8075 35.7282 37.5094 37.59 36.4256C38.6533 35.8163 39.5704 34.9818 40.2772 33.9807C40.9839 32.9795 41.4632 31.8359 41.6813 30.63C42.0075 28.7663 41.6813 26.8912 40.8488 25.2487C41.4075 24.3487 41.7206 23.2969 41.7206 22.1625ZM39.18 22.1625C39.18 23.9719 37.7082 25.4437 35.8988 25.4437C35.2174 25.4418 34.5535 25.2282 33.9988 24.8325C33.4442 24.4367 33.0262 23.8784 32.8028 23.2347C32.5794 22.591 32.5615 21.8937 32.7517 21.2394C32.9419 20.5851 33.3307 20.0061 33.8644 19.5825L33.8775 19.5694C33.9825 19.4906 34.0988 19.4119 34.215 19.335C34.215 19.335 34.23 19.335 34.23 19.3219C34.2825 19.2956 34.3332 19.2563 34.3857 19.2281C34.3988 19.2281 34.4119 19.2169 34.425 19.2169C34.4775 19.1906 34.5432 19.1644 34.6069 19.1381C34.6725 19.1119 34.7382 19.0875 34.7907 19.0613C34.8038 19.0613 34.815 19.0481 34.8282 19.0481C34.8807 19.035 34.9332 19.0087 34.9857 18.9956C34.9988 18.9956 35.0232 18.9825 35.0382 18.9825C35.1019 18.9694 35.1544 18.9562 35.22 18.945H35.2332L35.4282 18.9037C35.4413 18.9037 35.4657 18.9037 35.4807 18.8906C35.5332 18.8906 35.5838 18.8775 35.6363 18.8775H35.7019C35.7675 18.8775 35.8332 18.8644 35.91 18.8644H36.0788C36.1313 18.8644 36.1725 18.8644 36.2232 18.8775H36.2494C36.3525 18.8906 36.4575 18.9037 36.5625 18.93C37.3022 19.0885 37.9653 19.4955 38.4416 20.0833C38.9178 20.671 39.1784 21.406 39.18 22.1625ZM18.8307 2.60625H39.3244L34.62 16.4813C34.425 16.5187 34.23 16.5844 34.035 16.65L29.085 6.55312L24.12 16.5844C23.925 16.5206 23.715 16.4813 23.5069 16.4419L18.8307 2.60625ZM28.1457 21.0281C27.906 19.8255 27.29 18.7302 26.3869 17.9006L29.0832 12.4556L31.8057 18.0187C30.9994 18.825 30.4125 19.8563 30.1782 21.0281H28.1457ZM21.6188 18.9694C21.6825 18.9562 21.735 18.9431 21.8007 18.9319H21.8382C21.8925 18.9169 21.9432 18.9169 21.9957 18.9037H22.0482C22.1007 18.9037 22.14 18.8906 22.1907 18.8906H22.6988C22.7513 18.8906 22.7907 18.9037 22.83 18.9037C22.8563 18.9037 22.8675 18.9037 22.8957 18.9169C22.9463 18.93 22.9857 18.93 23.0382 18.9431C23.0513 18.9431 23.0644 18.9431 23.0907 18.9562L23.2725 18.9937H23.2857C23.3382 19.0088 23.3907 19.0219 23.4413 19.0481C23.4544 19.0481 23.4675 19.0613 23.4938 19.0613C23.5332 19.0744 23.5857 19.0875 23.625 19.1119C23.6382 19.1119 23.6513 19.125 23.6625 19.125C23.715 19.1512 23.7675 19.1644 23.82 19.1906H23.8332C23.8934 19.2134 23.9501 19.2443 24.0019 19.2825H24.015C24.0675 19.3088 24.12 19.3463 24.1725 19.3725C24.1857 19.3725 24.1856 19.3856 24.1969 19.3856C24.2494 19.4119 24.2907 19.4513 24.3413 19.4775L24.3544 19.4906C24.51 19.6069 24.6544 19.7381 24.7969 19.8675L24.81 19.8806C25.3906 20.4922 25.713 21.3042 25.71 22.1475C25.6812 22.999 25.3227 23.8061 24.7102 24.3983C24.0976 24.9905 23.2789 25.3215 22.4269 25.3215C21.5749 25.3215 20.7562 24.9905 20.1436 24.3983C19.5311 23.8061 19.1726 22.999 19.1438 22.1475C19.1417 21.4173 19.3844 20.7076 19.833 20.1315C20.2816 19.5554 20.9104 19.1463 21.6188 18.9694ZM8.79753 18.8775C10.6088 18.8775 12.0807 20.3512 12.0807 22.1606C12.0807 23.97 10.6088 25.4437 8.7994 25.4437C6.99003 25.4437 5.5144 23.9719 5.5144 22.1625C5.5144 20.3531 6.98815 18.8775 8.79753 18.8775ZM39.1031 30.1744C38.955 31.0079 38.6247 31.7985 38.136 32.4898C37.6473 33.1811 37.0121 33.7561 36.2757 34.1737C34.8544 34.995 33.1088 35.2556 31.2713 35.5163C30.2381 35.6486 29.2119 35.8307 28.1963 36.0619C25.4869 36.7275 22.8825 38.0306 20.355 39.2812C17.1225 40.8825 14.0738 42.3938 11.2482 42.3938C9.79919 42.4028 8.38486 41.951 7.2094 41.1038C4.34253 39.1238 4.48503 35.4113 4.8244 33.3787C5.13753 31.4756 6.0094 29.6925 6.84378 27.9844C6.89628 27.8813 6.93565 27.7894 6.98815 27.6844C7.27315 27.7894 7.57315 27.8681 7.88628 27.9206C7.39128 30.6825 8.79753 33.5344 11.535 34.9425L12.03 35.2031L12.5625 35.0081C14.8425 34.2 16.9538 32.8838 18.8175 31.125C19.8467 30.1653 20.7564 29.085 21.5269 27.9075C21.8269 27.9581 22.1269 27.9713 22.4269 27.9713C23.7167 27.9683 24.9693 27.5387 25.9894 26.7495C27.0096 25.9603 27.74 24.8558 28.0669 23.6081H30.255C30.5798 24.8577 31.3102 25.9641 32.3316 26.7538C33.353 27.5434 34.6077 27.9716 35.8988 27.9713C36.9788 27.9713 37.98 27.6712 38.8425 27.165C39.18 28.14 39.285 29.1581 39.1031 30.1744Z" fill="#323330"/>
</g>
<defs>
<clipPath id="clip0_71_143">
<rect width="45" height="45" fill="white"/>
</clipPath>
</defs>
</svg>
