<svg width="45" height="45" viewBox="0 0 45 45" fill="none" xmlns="http://www.w3.org/2000/svg">
<path d="M29.1586 7.65281L29.3456 3.19078L33.1706 2.95453L33.3422 7.49672C33.3449 7.5695 33.3215 7.64087 33.2761 7.69781C33.2514 7.72869 33.2208 7.75431 33.186 7.77314C33.1513 7.79196 33.1131 7.80363 33.0738 7.80743C33.0344 7.81123 32.9947 7.8071 32.957 7.79527C32.9193 7.78345 32.8843 7.76417 32.8542 7.73859L31.3776 6.58547L29.6297 7.8989C29.5984 7.92327 29.5626 7.94117 29.5244 7.95155C29.4861 7.96192 29.4462 7.96457 29.4069 7.95933C29.3676 7.95409 29.3298 7.94108 29.2956 7.92104C29.2614 7.90101 29.2316 7.87436 29.2078 7.84265C29.1698 7.78702 29.1524 7.71989 29.1586 7.65281Z" fill="white"/>
<path d="M29.3456 3.18937L29.1585 7.65281C29.1556 7.72125 29.177 7.78851 29.219 7.84265C29.2428 7.87436 29.2726 7.90101 29.3068 7.92104C29.341 7.94107 29.3789 7.95409 29.4181 7.95933C29.4574 7.96456 29.4973 7.96192 29.5356 7.95154C29.5738 7.94117 29.6096 7.92327 29.6409 7.8989L31.3888 6.58546L32.8654 7.73859C32.8955 7.76417 32.9305 7.78345 32.9682 7.79527C33.0059 7.8071 33.0456 7.81123 33.085 7.80743C33.1243 7.80362 33.1625 7.79196 33.1972 7.77313C33.232 7.7543 33.2626 7.72869 33.2873 7.69781C33.3327 7.64087 33.3562 7.5695 33.3534 7.49671L33.1706 2.95312L35.3728 2.81249C35.6338 2.79513 35.8958 2.82942 36.1436 2.91343C36.3914 2.99743 36.6203 3.12949 36.817 3.30204C37.0137 3.47459 37.1744 3.68425 37.29 3.91901C37.4056 4.15377 37.4738 4.40902 37.4906 4.67015V40.2075C37.4883 40.7336 37.2777 41.2375 36.9047 41.6086C36.5317 41.9797 36.0269 42.1879 35.5007 42.1875H35.4079L8.76229 41.0006C8.26323 40.9802 7.79015 40.7727 7.43709 40.4194C7.08404 40.0661 6.87689 39.5928 6.85682 39.0937L5.62494 6.59531C5.60719 6.07699 5.79293 5.57231 6.14244 5.18916C6.49195 4.80601 6.9775 4.57481 7.49526 4.54499L29.3442 3.19078L29.3456 3.18937Z" fill="#FF4785"/>
<path d="M24.2621 17.6541C24.2621 18.4233 29.4933 18.0549 30.1964 17.5135C30.1964 12.2682 27.3586 9.5119 22.1611 9.5119C16.9636 9.5119 14.0527 12.3103 14.0527 16.5094C14.0527 23.8219 24.0047 23.9625 24.0047 27.9507C24.0375 28.1914 24.0144 28.4365 23.9374 28.6669C23.8603 28.8973 23.7313 29.1069 23.5603 29.2796C23.3893 29.4522 23.1809 29.5832 22.9512 29.6624C22.7215 29.7417 22.4767 29.767 22.2357 29.7366C20.6508 29.7366 20.0236 28.9322 20.0982 26.2041C20.0982 25.6121 14.0513 25.4264 13.8685 26.2041C13.3988 32.8135 17.5543 34.726 22.306 34.726C26.9128 34.726 30.5255 32.2889 30.5255 27.8803C30.5255 20.0433 20.4258 20.2542 20.4258 16.3702C20.4047 16.1221 20.4397 15.8725 20.5281 15.6398C20.6166 15.4071 20.7563 15.1973 20.9369 15.0259C21.1174 14.8545 21.3342 14.726 21.5712 14.6497C21.8082 14.5735 22.0594 14.5516 22.306 14.5857C23.0457 14.5857 24.3732 14.715 24.2621 17.6541Z" fill="white"/>
</svg>
