<svg width="45" height="45" viewBox="0 0 45 45" fill="none" xmlns="http://www.w3.org/2000/svg">
<g clip-path="url(#clip0_71_160)">
<path d="M22.5 1C10.0781 1 0 11.0781 0 23.5C0 35.9219 10.0781 46 22.5 46C34.9219 46 45 35.9219 45 23.5C45 11.0781 34.9219 1 22.5 1ZM23.94 8.69688C24.2831 8.69688 24.6206 8.79625 24.9244 8.99125C25.1588 9.14688 25.4625 9.33812 26.34 11.155C26.9213 10.99 27.2175 11.0762 27.3731 11.1194C27.7556 11.2244 28.0594 11.4756 28.2413 11.8225C29.1356 13.5419 29.2575 16.6094 28.8675 18.5819C28.4156 20.8919 27.4519 22.3863 26.7469 23.4119C27.3544 24.0288 28.2056 25.0975 28.8412 26.8337C29.3625 28.285 29.4225 29.605 29.3531 30.6119C29.7418 30.4299 30.1188 30.2239 30.4819 29.995C31.5937 29.3087 33.27 28.2756 35.2687 28.2494C36.6075 28.2325 37.6481 29.0837 37.8056 30.3175C37.8818 30.8874 37.7423 31.4653 37.4145 31.9377C37.0867 32.4101 36.5943 32.7431 36.0338 32.8712C34.8169 33.1675 34.2525 33.3925 32.6194 34.4519C30.3094 35.9462 27.8588 36.7806 26.9719 37.0581C26.5885 37.3731 26.1363 37.5934 25.6519 37.7012C24.27 38.0406 19.5281 38.2919 19.1531 38.2919H19.0669C17.5987 38.2919 16.7906 37.84 16.3481 37.3713C15.1144 37.9881 13.5169 37.7275 12.3694 37.12C11.9791 36.9252 11.6623 36.6094 11.4663 36.2198C11.2703 35.8302 11.2056 35.3876 11.2819 34.9581C11.1743 34.8461 11.0782 34.7236 10.995 34.5925C10.6912 34.1238 10.005 32.8375 10.1437 30.9438C10.2487 29.5881 11.1862 28.3806 11.7937 27.7375C11.75 26.2895 12.0106 24.8485 12.5587 23.5075C13.1325 22.1444 14.2181 20.98 15.0337 20.2506C14.4337 19.2438 13.8263 17.6875 14.4169 16.1069C14.8425 14.9781 15.1894 14.3519 15.9544 14.0819H15.945C16.3181 13.9431 16.6744 13.795 16.8562 13.5962C17.9721 12.3771 19.5158 11.6361 21.165 11.5281C21.2344 11.3537 21.3131 11.1812 21.3994 10.9975C21.9806 9.76375 22.5975 9.06813 23.3194 8.8075C23.516 8.73365 23.7243 8.69555 23.9344 8.695L23.94 8.69688ZM23.9513 10.0094C23.0006 10.0394 22.0744 12.8575 22.0744 12.8575C22.0744 12.8575 19.6931 12.475 17.8256 14.4906C17.4525 14.8994 16.9481 15.1169 16.4269 15.3156C16.2787 15.3681 16.0969 15.3588 15.645 16.5756C14.9494 18.4338 16.8169 20.5019 16.8169 20.5019C16.8169 20.5019 14.5931 22.075 13.7681 24.0287C12.8569 26.1737 13.1344 28.2681 13.1344 28.2681C13.1344 28.2681 11.5537 29.6406 11.4487 31.0563C11.3531 32.2994 11.7094 33.3063 12.0919 33.8969C12.5175 34.54 13.0481 34.2269 13.0481 34.2269C13.0481 34.2269 11.9962 35.4513 12.9787 35.9725C13.8731 36.4413 15.3844 36.7112 16.185 35.9031C16.7662 35.3219 16.8806 34.0263 17.0963 33.4975C17.1488 33.3756 17.3212 33.7056 17.4881 33.8706C17.67 34.045 17.9831 34.2362 17.9831 34.2362C17.9831 34.2362 16.5675 34.8437 17.1487 36.235C17.34 36.6962 18.0262 36.9906 19.1475 36.9813C19.5637 36.9719 24.1425 36.7206 25.3594 36.4262C26.0625 36.2612 26.3062 35.8956 26.3062 35.8956C26.3062 35.8956 29.2425 35.0875 31.9275 33.3512C33.6469 32.23 34.3519 31.9263 35.7413 31.5963C36.8888 31.3188 36.81 29.5375 35.2894 29.5638C33.7162 29.5806 32.3362 30.3888 31.1719 31.1106C28.9913 32.4569 27.9056 32.3706 27.9056 32.3706L27.8719 32.3106C27.7237 32.0669 28.5675 29.8862 27.6206 27.2894C26.595 24.4487 24.9713 23.7625 25.1006 23.545C25.6575 22.6075 27.0469 21.1131 27.6019 18.3325C27.9319 16.6469 27.8456 13.8756 27.0975 12.4244C26.9587 12.1544 25.725 12.8763 25.725 12.8763C25.725 12.8763 24.57 10.3056 24.2475 10.0956C24.1606 10.0372 24.0559 10.0071 23.9513 10.0094Z" fill="#299ED9"/>
</g>
<defs>
<clipPath id="clip0_71_160">
<rect width="45" height="45" fill="white"/>
</clipPath>
</defs>
</svg>
