<svg width="30" height="30" viewBox="0 0 30 30" fill="none" xmlns="http://www.w3.org/2000/svg">
<path d="M11.7313 23.2005C11.7313 23.2005 10.5848 23.8672 12.5471 24.0928C14.9243 24.364 16.1395 24.3251 18.7591 23.8293C18.7591 23.8293 19.4478 24.2612 20.4098 24.6352C14.537 27.1523 7.11843 24.4895 11.7313 23.2005ZM11.0137 19.916C11.0137 19.916 9.72784 20.8679 11.6917 21.0709C14.2311 21.3329 16.2366 21.3545 19.7068 20.6861C19.7068 20.6861 20.1868 21.1728 20.9416 21.4389C13.8409 23.5152 5.93214 21.6026 11.0137 19.9161M17.0635 14.3445C18.5105 16.0105 16.6833 17.5098 16.6833 17.5098C16.6833 17.5098 20.3576 15.613 18.6702 13.2377C17.0942 11.0227 15.8856 9.92203 22.4284 6.1275C22.4284 6.12739 12.1583 8.69245 17.0635 14.3445Z" fill="white"/>
<path d="M24.8308 25.6301C24.8308 25.6301 25.6791 26.3292 23.8963 26.8699C20.5066 27.8967 9.78727 28.207 6.80966 26.9107C5.73927 26.4451 7.74657 25.7989 8.37809 25.6632C9.03657 25.5205 9.41286 25.547 9.41286 25.547C8.22241 24.7086 1.71856 27.1937 6.10917 27.9055C18.0833 29.8473 27.9367 27.031 24.8308 25.6301ZM12.2827 16.5129C12.2827 16.5129 6.83016 17.8078 10.3519 18.2782C11.8387 18.4772 14.803 18.4322 17.564 18.201C19.8205 18.0106 22.0861 17.6059 22.0861 17.6059C22.0861 17.6059 21.2905 17.9467 20.7148 18.3397C15.178 19.796 4.48173 19.1184 7.56112 17.6289C10.1653 16.3702 12.2826 16.5129 12.2826 16.5129M22.0637 21.9802C27.6921 19.0554 25.0897 16.2448 23.2732 16.6234C22.828 16.7161 22.6295 16.7963 22.6295 16.7963C22.6295 16.7963 22.7949 16.5374 23.1106 16.4254C26.7039 15.162 29.4676 20.1515 21.9505 22.1276C21.9505 22.1276 22.0376 22.0499 22.0637 21.9802ZM18.6703 0C18.6703 0 21.7873 3.11812 15.7137 7.91309C10.8434 11.7594 14.603 13.9524 15.7116 16.458C12.8687 13.893 10.7824 11.635 12.1821 9.5335C14.2365 6.44871 19.9277 4.9531 18.6703 0" fill="white"/>
<path d="M12.8357 29.9057C18.2384 30.2515 26.5346 29.7138 26.7312 27.1574C26.7312 27.1574 26.3535 28.1265 22.2662 28.8961C17.6549 29.7639 11.9675 29.6626 8.59436 29.1064C8.59448 29.1064 9.28489 29.6778 12.8357 29.9057Z" fill="white"/>
</svg>
