<svg width="14" height="14" viewBox="0 0 14 14" fill="none" xmlns="http://www.w3.org/2000/svg">
<path d="M7.59268 6.90993L13.4277 1.02787C13.4799 0.975252 13.5213 0.912781 13.5495 0.844028C13.5778 0.775275 13.5923 0.701585 13.5923 0.627167C13.5923 0.552749 13.5778 0.47906 13.5495 0.410307C13.5213 0.341553 13.4799 0.279083 13.4277 0.226461C13.3755 0.17384 13.3135 0.132098 13.2453 0.10362C13.1771 0.0751413 13.104 0.0604838 13.0302 0.0604838C12.9564 0.0604838 12.8833 0.0751413 12.8151 0.10362C12.7468 0.132098 12.6849 0.17384 12.6327 0.226461L6.79768 6.04803L0.962678 0.165978C0.910477 0.113356 0.848506 0.0716145 0.780303 0.043136C0.7121 0.0146575 0.639 5.54457e-10 0.565178 0C0.491355 -5.54457e-10 0.418256 0.0146575 0.350053 0.043136C0.281849 0.0716145 0.219878 0.113356 0.167677 0.165978C0.115477 0.218599 0.07407 0.28107 0.0458193 0.349823C0.0175686 0.418576 0.00302768 0.492265 0.00302768 0.566683C0.00302768 0.641101 0.0175686 0.714791 0.0458193 0.783544C0.07407 0.852297 0.115477 0.914768 0.167677 0.967389L6.00268 6.90993L0.167677 12.7315C0.114609 12.7836 0.072433 12.8459 0.0436349 12.9148C0.0148368 12.9836 0 13.0575 0 13.1322C0 13.2069 0.0148368 13.2808 0.0436349 13.3497C0.072433 13.4185 0.114609 13.4808 0.167677 13.5329C0.217072 13.5872 0.277456 13.6301 0.344743 13.6588C0.412029 13.6875 0.484646 13.7013 0.557678 13.6992C0.632959 13.7015 0.70788 13.6879 0.777628 13.6593C0.847377 13.6306 0.91041 13.5876 0.962678 13.5329L6.79768 7.65086L12.6327 13.5329C12.6821 13.5872 12.7425 13.6301 12.8097 13.6588C12.877 13.6875 12.9496 13.7013 13.0227 13.6992C13.0981 13.7025 13.1733 13.6893 13.2432 13.6606C13.3131 13.6319 13.376 13.5884 13.4277 13.5329C13.4807 13.4808 13.5229 13.4185 13.5517 13.3497C13.5805 13.2808 13.5954 13.2069 13.5954 13.1322C13.5954 13.0575 13.5805 12.9836 13.5517 12.9148C13.5229 12.8459 13.4807 12.7836 13.4277 12.7315L7.59268 6.90993Z" fill="white"/>
</svg>
