<svg width="45" height="45" viewBox="0 0 45 45" fill="none" xmlns="http://www.w3.org/2000/svg">
<path d="M32.2125 17.8462C29.8444 7.42125 24.2588 3.99563 23.6588 2.685C22.9988 1.76063 22.2844 0 22.2844 0L22.275 0.091875V0.11625H22.2731C22.2698 0.140532 22.2673 0.164922 22.2656 0.189375V0.2175H22.2619L22.2581 0.26625V0.315H22.2525C22.2506 0.33 22.2506 0.34875 22.2469 0.361875V0.40125H22.2431C22.2431 0.414375 22.2431 0.429375 22.2394 0.440625V0.478125H22.2356L22.2319 0.538125V0.541875L22.215 0.635625V0.650625H22.2113L22.2056 0.673125V0.705H22.2V0.74625H22.1906V0.78H22.1813V0.819375H22.1738V0.855H22.1663V0.886875H22.155V0.913125H22.1475V0.946875H22.14V0.973125H22.1306V0.9975H22.125V1.02562H22.1175L22.1156 1.03313V1.05187H22.11L22.1081 1.06312V1.07438H22.1044C22.1024 1.08046 22.1012 1.08675 22.1006 1.09312L22.0819 1.1325V1.13625C22.0781 1.14015 22.075 1.14457 22.0725 1.14937V1.16437H22.065V1.17938H22.0556V1.19438H22.05V1.21312H22.0388V1.23937H22.0313V1.24688H22.0238V1.26187H22.0163V1.2825H22.0088V1.2975H21.9975V1.31813H21.99V1.33312H21.9806V1.34812H21.975V1.36687H21.9656V1.38188H21.9581V1.39312H21.9506V1.40812H21.9394V1.425H21.9319V1.43625H21.9225V1.45125H21.915V1.47188H21.9056V1.47938H21.9V1.49437H21.8888V1.50188H21.8813V1.52062H21.8738V1.52813H21.8663V1.54313H21.8569V1.55437H21.8513L21.8475 1.56187V1.56938H21.8438L21.84 1.57688L21.8381 1.57875C21.8368 1.58369 21.8342 1.58821 21.8306 1.59187V1.5975L21.8063 1.63125C21.8025 1.635 21.7931 1.64437 21.7894 1.65188V1.65562H21.7875L21.7819 1.66125V1.66688H21.7781L21.7725 1.6725L21.7706 1.67438L21.765 1.68187V1.68938H21.7594L21.7556 1.69313V1.69687H21.7519C21.7519 1.70062 21.7481 1.70062 21.7481 1.7025V1.70812H21.7406L21.7369 1.71375V1.725H21.7313V1.7325H21.7238V1.74375H21.7163V1.75875H21.7069V1.74375H21.6975V1.75125H21.69V1.7625H21.6806V1.7775H21.6713V1.785H21.6638V1.79625H21.6563V1.80375H21.6488V1.81875H21.6375V1.82625H21.63V1.8375H21.6206V1.845H21.6131V1.85438H21.6038V1.87313H21.6V1.88063H21.5888V1.89H21.5813V1.89375H21.5738V1.90125H21.5644V1.92H21.5569V1.9275H21.5475V1.935H21.54V1.94625H21.5306V1.95375H21.5213V1.96125H21.5138V1.96875H21.5063V1.9875H21.4988V1.99688H21.4875V2.00437H21.48V2.01187H21.4706V2.02312H21.4631V2.03062H21.4538V2.04375H21.4463V2.05125H21.435V2.0625H21.4313V2.07H21.4238V2.0775H21.4144V2.085H21.4069V2.09625H21.3975V2.10375H21.3919L21.39 2.1075V2.11125H21.3863L21.3788 2.11875L21.3713 2.12438V2.13563H21.3638V2.145H21.3563V2.1525H21.3488V2.16H21.3431L21.3375 2.16562V2.17125H21.3338L21.33 2.175V2.18062H21.3263C21.3169 2.19187 21.3131 2.19938 21.3 2.21062C21.2658 2.23394 21.2338 2.2603 21.2044 2.28937L21.1631 2.32125L21.1613 2.32312C21.1309 2.34784 21.1003 2.37222 21.0694 2.39625V2.39813L20.9306 2.51437L20.9269 2.5125C20.82 2.60063 20.7075 2.7 20.5781 2.81062V2.8125H20.5763C20.2594 3.09 19.8825 3.44625 19.4606 3.8775L19.4325 3.90562L19.425 3.91312C16.875 6.55125 12.8569 12.0487 12.4331 20.9325C12.3956 21.6675 12.4031 22.3819 12.4444 23.0775V23.0944C12.6488 26.595 13.7475 29.5837 15.1219 32.0119C15.6694 32.9794 16.26 33.8606 16.8581 34.6481C18.9244 37.3763 21.0338 38.9944 21.5719 39.3862C22.3988 41.3044 22.3219 44.5969 22.3219 44.5969L23.5294 45C23.5294 45 23.2838 41.8106 23.6288 40.2713C23.7356 39.7894 23.9888 39.3787 24.2831 39.03C24.8055 38.6578 25.3045 38.2539 25.7775 37.8206C25.8113 37.785 25.83 37.7531 25.86 37.7194C28.7119 35.0606 34.0388 28.5131 32.2125 17.8462Z" fill="#0FBF2F"/>
</svg>
