<svg width="45" height="45" viewBox="0 0 45 45" fill="none" xmlns="http://www.w3.org/2000/svg">
<path d="M5.85938 1.875C4.16063 1.875 2.81825 2.77594 2.18262 4.33594C1.982 4.81781 1.88054 5.32885 1.87866 5.85572C1.87679 7.60135 3.00175 9.01823 3.67675 9.86573C3.79488 10.0139 3.90117 10.1458 4.01367 10.3052L4.31763 10.708C4.6195 11.1036 4.96327 11.5523 5.07202 11.7773C5.10764 11.8805 5.15474 12.0613 5.21851 12.29C5.51288 13.3494 6.0623 15.3183 6.93605 16.8164C7.28855 17.4202 7.78464 18.179 8.14089 18.7134C7.90276 19.9059 7.50001 22.1025 7.50001 23.4375C7.50001 25.7813 7.98605 27.6635 9.04542 29.3848C9.4373 29.9998 10.6331 31.875 12.6563 31.875C13.3744 31.875 14.5677 31.5945 14.8902 29.8133C16.3245 31.6639 18.75 33.9844 22.5 35.625C22.5 35.625 15.4703 27.4227 14.2346 22.3096C14.2346 22.3096 12.8899 23.6726 11.7481 26.4551C11.4068 25.5964 11.25 24.6282 11.25 23.4375C11.25 22.2619 11.7672 19.6339 11.9678 18.7208L12.1436 17.9261L11.6822 17.2559C11.6747 17.2428 10.7302 15.8792 10.177 14.9305C9.54704 13.8505 9.08242 12.1793 8.83304 11.283C8.71117 10.8461 8.61543 10.53 8.52543 10.3162C8.1973 9.60561 7.71684 8.9815 7.29496 8.43025L7.06058 8.11896C6.94246 7.94833 6.7864 7.75061 6.61015 7.52936C6.26703 7.09811 5.62827 6.29451 5.64702 5.77888L5.85577 5.63241L5.85942 5.62508C7.35005 5.62508 9.2702 6.68321 9.99395 7.08259C10.2302 7.21196 10.4038 7.30135 10.4957 7.3426L10.8216 7.48541L11.4625 7.50739C12.3006 7.52614 14.848 7.58573 16.648 8.30573C19.9311 9.61823 21.7464 10.932 23.5914 13.3301C27.9489 18.9964 29.5566 26.3344 29.5716 26.4075L29.806 27.4659L30.8314 27.7991C30.867 27.8123 33.7368 28.7713 36.4124 31.2781C33.0468 32.1106 31.8751 33.7501 31.8751 33.7501C31.8751 33.7501 32.7676 35.4901 37.0313 38.2032C39.6094 39.8438 41.0157 41.0157 43.1251 43.1251C43.1251 43.1251 41.017 38.4372 38.0714 34.7022C40.3139 33.9841 43.0701 33.6109 43.0701 33.6109L41.3636 31.2452C38.5548 27.3508 34.7882 25.3854 32.9957 24.6204C32.3732 22.2467 30.4931 16.1525 26.565 11.045C24.3169 8.12186 21.9246 6.37378 18.0396 4.81941C15.739 3.90066 12.9726 3.79106 11.7408 3.76106C10.6626 3.16856 8.26689 1.875 5.85938 1.875ZM13.4766 9.375C13.4766 9.375 12.6563 9.375 11.7188 9.60938L14.2969 13.1213C15 12.1876 15 11.0962 15 11.0962C15 11.0962 14.5322 9.84375 13.4766 9.375Z" fill="#323330"/>
</svg>
