<svg width="48" height="48" viewBox="0 0 48 48" fill="none" xmlns="http://www.w3.org/2000/svg">
<g clip-path="url(#clip0_72_203)">
<path d="M44.284 36.035L27.687 1.429C26.832 -0.353998 24.35 -0.500998 23.29 1.169L4.88601 30.177C4.48901 30.802 4.50101 31.603 4.91501 32.217L14.186 45.955C14.761 46.807 15.82 47.192 16.809 46.908L42.751 39.45C44.208 39.031 44.939 37.402 44.284 36.035ZM40.618 37.279L18.8 43.388C18.295 43.53 17.82 43.083 17.93 42.57L25.665 6.473C25.804 5.823 26.688 5.718 26.976 6.316L41.241 35.937C41.489 36.481 41.194 37.118 40.618 37.279Z" fill="#323330"/>
</g>
<defs>
<clipPath id="clip0_72_203">
<rect width="48" height="48" fill="white"/>
</clipPath>
</defs>
</svg>
