<svg width="45" height="45" viewBox="0 0 45 45" fill="none" xmlns="http://www.w3.org/2000/svg">
<path d="M44.7561 9.90001H43.9911C43.0452 9.90001 42.1542 10.341 41.5791 11.0916L33.7491 21.3309L25.9191 11.0916C25.3458 10.341 24.4539 9.90001 23.5089 9.90001H22.7439L32.6178 22.8114L22.5324 36H23.2974C24.2433 36 25.1343 35.559 25.7085 34.8084L33.75 24.2928L41.7915 34.8084C42.3657 35.559 43.2567 36 44.2026 36H44.9676L34.8822 22.8114L44.7561 9.90001ZM19.1601 30.8178C16.8615 34.3107 12.3363 36.1008 8.01 34.5222C4.2039 33.1335 1.8 29.3499 1.8 25.2981V24.3H12.6H22.5V20.5794C22.5 14.7249 18.1638 9.59941 12.3345 9.05131C5.6457 8.42221 0 13.689 0 20.25V25.2657C0 30.0996 2.8935 34.5933 7.4421 36.2304C13.3848 38.3688 19.6353 35.1774 21.7485 29.7H21.1743C20.3544 29.7 19.6101 30.1329 19.1601 30.8178ZM1.8 20.25C1.8 15.039 6.039 10.8 11.25 10.8C16.461 10.8 20.7 15.039 20.7 20.25V22.5H1.8V20.25Z" fill="#323330"/>
</svg>
