<svg width="48" height="48" viewBox="0 0 48 48" fill="none" xmlns="http://www.w3.org/2000/svg">
<path d="M21.906 31.772L24.507 29.048L27.107 31.772V43H21.906V31.772Z" fill="#546E7A"/>
<path d="M17.7369 29.0581L21.4419 28.3831L21.9449 32.1151L15.3449 41.1991L11.1379 38.1411L17.7369 29.0581Z" fill="#F50057"/>
<path d="M15.962 24.4091L19.355 26.0411L17.569 29.3561L6.88996 32.8251L5.28296 27.8791L15.962 24.4091Z" fill="#D500F9"/>
<path d="M17.256 19.607L19.042 22.922L15.649 24.554L4.96997 21.084L6.57697 16.137L17.256 19.607Z" fill="#29B6F6"/>
<path d="M21.126 16.4819L20.623 20.214L16.918 19.5389L10.318 10.4549L14.526 7.39795L21.126 16.4819Z" fill="#00E5FF"/>
<path d="M26.0939 16.228L23.4929 18.952L20.8929 16.228V5H26.0939V16.228Z" fill="#546E7A"/>
<path d="M30.2621 18.943L26.5581 19.618L26.0551 15.886L32.6541 6.802L36.8621 9.859L30.2621 18.943Z" fill="#F50057"/>
<path d="M32.039 23.59L28.645 21.958L30.431 18.643L41.11 15.174L42.717 20.12L32.039 23.59Z" fill="#D500F9"/>
<path d="M30.744 28.393L28.958 25.078L32.351 23.447L43.03 26.916L41.423 31.863L30.744 28.393Z" fill="#29B6F6"/>
<path d="M26.874 31.518L27.378 27.786L31.082 28.461L37.682 37.545L33.474 40.602L26.874 31.518Z" fill="#00E5FF"/>
</svg>
