<svg width="45" height="45" viewBox="0 0 45 45" fill="none" xmlns="http://www.w3.org/2000/svg">
<path d="M22.4919 42.7148C21.9544 42.7148 21.4088 42.5705 20.9355 42.2977L15.9856 39.3695C15.2476 38.9523 15.6086 38.808 15.8493 38.7276C16.836 38.3827 17.0365 38.3106 18.0875 37.7088C18.1999 37.6447 18.3443 37.6686 18.4565 37.741L22.2592 39.9952C22.3956 40.0753 22.588 40.0753 22.7164 39.9952L37.534 31.4431C37.6705 31.3628 37.7586 31.2024 37.7586 31.042V13.938C37.7586 13.7695 37.6705 13.6171 37.5261 13.529L22.7165 4.98484C22.5802 4.90459 22.3957 4.90459 22.2593 4.98484L7.4577 13.5369C7.31321 13.6171 7.22505 13.7775 7.22505 13.946V31.042C7.22505 31.2024 7.31321 31.3628 7.4577 31.4352L11.5172 33.7777C13.7234 34.8767 15.0711 33.5852 15.0711 32.2776V15.398C15.0711 15.1574 15.2636 14.9729 15.5044 14.9729H17.3817C17.6143 14.9729 17.8148 15.1574 17.8148 15.398V32.2856C17.8148 35.2218 16.2103 36.9065 13.4266 36.9065C12.5681 36.9065 11.8942 36.9065 10.017 35.976L6.13406 33.7376C5.17131 33.184 4.5777 32.1491 4.5777 31.0341V13.938C4.5777 12.8309 5.17131 11.788 6.13406 11.2345L20.9355 2.68237C21.8741 2.15292 23.1177 2.15292 24.0483 2.68237L38.8661 11.2424C39.8288 11.7959 40.4224 12.8308 40.4224 13.946V31.042C40.4224 32.1491 39.8288 33.184 38.8661 33.7456L24.0483 42.2977C23.575 42.5706 23.0383 42.7144 22.4919 42.7148ZM34.4537 25.8596C34.4537 22.6585 32.2875 21.8082 27.7388 21.2065C23.1337 20.5968 22.6685 20.2839 22.6685 19.2089C22.6685 18.3185 23.0616 17.1311 26.4712 17.1311C29.5118 17.1311 30.635 17.7889 31.1002 19.8428C31.1404 20.0352 31.317 20.1796 31.5173 20.1796H33.443C33.5631 20.1796 33.6755 20.1316 33.7558 20.0432C33.8361 19.9551 33.8761 19.8347 33.8679 19.7143C33.5712 16.1765 31.2205 14.5318 26.4712 14.5318C22.2434 14.5318 19.7243 16.3128 19.7243 19.3052C19.7243 22.5463 22.2353 23.4449 26.2866 23.8458C31.1404 24.3193 31.5173 25.0333 31.5173 25.988C31.5173 27.6408 30.1858 28.3465 27.065 28.3465C23.142 28.3465 22.2834 27.3598 21.9946 25.4104C21.9625 25.2019 21.786 25.0495 21.5695 25.0495H19.652C19.5961 25.0492 19.5407 25.06 19.489 25.0812C19.4373 25.1025 19.3903 25.1338 19.3508 25.1733C19.3112 25.2128 19.2799 25.2598 19.2587 25.3115C19.2374 25.3632 19.2267 25.4186 19.227 25.4745C19.227 27.9697 20.5828 30.9461 27.073 30.9461C31.758 30.938 34.4537 29.0844 34.4537 25.8596Z" fill="#323330"/>
</svg>
