<svg width="45" height="45" viewBox="0 0 45 45" fill="none" xmlns="http://www.w3.org/2000/svg">
<g clip-path="url(#clip0_76_2)">
<path d="M22.4999 43.9269C10.6847 43.9269 1.07214 34.3152 1.07214 22.4998C1.07232 10.6844 10.6849 1.07263 22.5001 1.07263C34.315 1.07263 43.9276 10.6852 43.9276 22.5004C43.9276 34.3153 34.315 43.9269 22.4999 43.9269Z" fill="#85EA2D"/>
<path d="M22.4998 2.14488C33.7417 2.14488 42.8548 11.2577 42.8548 22.4998C42.8548 33.7414 33.7417 42.8548 22.4998 42.8548C11.2583 42.8548 2.14488 33.7414 2.14488 22.4998C2.14488 11.2583 11.2583 2.14488 22.4998 2.14488ZM22.4998 0C10.0932 0 0 10.0934 0 22.4998C0 34.9063 10.0934 44.9995 22.4998 44.9995C34.9063 44.9995 45 34.9061 45 22.5C45 10.0932 34.9063 0 22.4998 0Z" fill="#173647"/>
<path d="M14.1676 15.226C14.0984 15.996 14.1933 16.7921 14.142 17.5706C14.0813 18.3495 13.986 19.1194 13.8303 19.8895C13.6141 20.9881 12.9303 21.8189 11.9878 22.5111C13.8222 23.7052 14.0296 25.5564 14.1506 27.434C14.2112 28.4465 14.1852 29.4673 14.2891 30.4708C14.367 31.2494 14.6697 31.4485 15.4747 31.4742C15.8034 31.4826 16.1402 31.4742 16.5217 31.4742V33.8794C14.1425 34.286 12.1785 33.6114 11.6935 31.5957C11.5376 30.8602 11.4337 30.1073 11.3994 29.346C11.3472 28.5413 11.4337 27.7367 11.3734 26.9322C11.2003 24.7256 10.9146 23.9817 8.80383 23.8778V21.1353C8.95508 21.1008 9.10813 21.0748 9.26227 21.0574C10.4217 20.9968 10.9146 20.6419 11.1656 19.5C11.2869 18.86 11.3562 18.211 11.3818 17.5534C11.4687 16.299 11.434 15.0186 11.6499 13.7729C11.9526 11.9818 13.0606 11.1165 14.9036 11.0127C15.4225 10.9865 15.9504 11.0127 16.5472 11.0127V13.4702C16.2963 13.4877 16.0799 13.5218 15.8551 13.5218C14.3583 13.4696 14.2801 13.9801 14.1676 15.226ZM17.0487 20.9189H17.0142C16.1489 20.8758 15.4049 21.5505 15.3614 22.4157C15.3181 23.2897 15.9928 24.0339 16.8581 24.0768H16.9618C17.8188 24.1288 18.5537 23.4709 18.6057 22.6145V22.5282C18.6233 21.6544 17.9225 20.9365 17.0487 20.9189ZM22.4736 20.9189C21.6345 20.8929 20.9333 21.5505 20.9076 22.381C20.9076 22.4332 20.9076 22.4765 20.9166 22.5282C20.9166 23.4712 21.5566 24.0772 22.5258 24.0772C23.4775 24.0772 24.0748 23.4542 24.0748 22.4765C24.0659 21.5332 23.4339 20.9101 22.4736 20.9189ZM28.0287 20.9189C27.1463 20.9013 26.4104 21.6027 26.3848 22.4851C26.3842 22.6943 26.425 22.9015 26.5048 23.0949C26.5846 23.2882 26.7018 23.4639 26.8497 23.6118C26.9977 23.7597 27.1733 23.8769 27.3667 23.9567C27.5601 24.0364 27.7673 24.0772 27.9765 24.0766H27.994C28.79 24.2151 29.5947 23.4452 29.6467 22.5196C29.6895 21.6628 28.9109 20.9189 28.0287 20.9189ZM35.6511 21.0484C34.6472 21.0054 34.1452 20.6681 33.8947 19.7158C33.7391 19.1066 33.6435 18.4836 33.6092 17.8557C33.5398 16.6963 33.5484 15.5282 33.4705 14.3688C33.2889 11.6176 31.2993 10.6573 28.4091 11.1326V13.5211C28.8673 13.5211 29.2222 13.5211 29.5771 13.5298C30.1915 13.5382 30.6587 13.7722 30.719 14.4558C30.7797 15.0786 30.7797 15.7101 30.8403 16.3419C30.9619 17.5968 31.0307 18.8682 31.2471 20.1054C31.4378 21.1265 32.1383 21.8878 33.0119 22.5108C31.4808 23.5403 31.0308 25.0109 30.9528 26.6638C30.9097 27.7972 30.8835 28.9391 30.8234 30.0815C30.7712 31.1195 30.4082 31.4568 29.3613 31.4828C29.067 31.4916 28.7815 31.5176 28.4527 31.535V33.9837C29.067 33.9837 29.6293 34.0181 30.1915 33.9837C31.9391 33.8796 32.9947 33.0318 33.3411 31.3359C33.4879 30.4023 33.5746 29.4602 33.6006 28.5155C33.6609 27.6501 33.6528 26.7763 33.7391 25.9199C33.8687 24.5787 34.483 24.0249 35.8242 23.9388C35.9541 23.9212 36.0751 23.8956 36.1965 23.8523V21.1094C35.9712 21.0832 35.8151 21.0574 35.6511 21.0484Z" fill="#173647"/>
</g>
<defs>
<clipPath id="clip0_76_2">
<rect width="45" height="45" fill="white"/>
</clipPath>
</defs>
</svg>
